<?xml version="1.0" standalone="no"?>
<!DOCTYPE svg PUBLIC "-//W3C//DTD SVG 20010904//EN"
 "http://www.w3.org/TR/2001/REC-SVG-20010904/DTD/svg10.dtd">
<svg version="1.0" xmlns="http://www.w3.org/2000/svg"
 width="790.000000pt" height="978.000000pt" viewBox="0 0 790.000000 978.000000"
 preserveAspectRatio="xMidYMid meet">

<g transform="translate(0.000000,978.000000) scale(0.100000,-0.100000)"
fill="#000000" stroke="none">
<path d="M1723 9705 c-34 -24 -44 -50 -59 -154 -49 -334 -7 -1455 71 -1918 28
-165 40 -216 100 -413 99 -332 128 -557 104 -819 -14 -156 -7 -220 36 -306 62
-128 271 -268 655 -438 344 -152 402 -188 534 -328 51 -54 88 -105 113 -157
l38 -76 0 -156 c-1 -134 -4 -169 -28 -263 -15 -59 -45 -156 -68 -215 -152
-396 -212 -582 -269 -822 -79 -339 -202 -692 -296 -850 -45 -75 -168 -245
-223 -307 l-29 -33 -157 0 c-321 0 -620 -72 -915 -220 -437 -220 -635 -537
-617 -990 8 -196 63 -366 161 -504 116 -163 336 -312 541 -367 64 -18 116 -23
260 -26 l180 -5 145 -58 c322 -128 462 -161 867 -205 349 -37 660 -2 1018 116
411 135 800 443 961 761 62 123 162 385 185 488 19 82 39 263 39 345 0 89 -20
256 -45 380 -55 271 -203 550 -357 674 -64 52 -148 98 -198 107 -35 8 -41 -9
-9 -28 85 -53 88 -256 5 -433 -33 -68 -73 -122 -83 -111 -3 3 -10 29 -14 58
-19 120 -117 243 -248 312 -39 20 -71 40 -71 43 0 4 34 126 75 272 173 608
283 935 349 1035 78 118 120 232 137 368 26 212 -24 413 -145 581 -76 107
-232 241 -406 348 -55 33 -100 64 -100 69 0 4 42 13 93 19 50 7 160 27 242 46
198 45 281 59 297 49 7 -4 10 -4 6 1 -13 14 12 45 37 45 17 0 23 4 19 15 -4 8
1 17 10 21 9 3 16 12 16 20 0 8 5 14 11 14 6 0 9 6 6 14 -7 17 12 36 36 36 13
0 17 5 13 16 -4 10 11 42 39 84 46 69 56 109 32 129 -17 14 -132 38 -219 46
-70 7 -83 16 -48 35 29 16 24 30 -10 30 -41 0 -38 18 7 37 21 8 65 35 99 59
117 83 106 96 -32 39 -47 -20 -89 -33 -95 -30 -14 9 -10 112 7 185 62 261 60
478 -4 648 -75 197 -204 334 -461 490 -19 11 -22 19 -17 45 4 18 14 40 24 49
16 17 24 17 116 3 54 -8 148 -26 210 -40 168 -39 176 -40 176 -22 0 37 -190
131 -346 172 -60 15 -113 31 -117 35 -4 4 2 47 15 96 17 72 22 118 22 239 0
140 -2 161 -39 320 -39 168 -40 172 -38 345 2 96 7 236 12 310 14 192 -2 297
-67 430 -29 60 -54 73 -72 40 -6 -12 -49 -155 -96 -318 -101 -355 -129 -430
-249 -666 -88 -172 -385 -722 -439 -813 -38 -64 -56 -57 -56 20 -1 157 -47
290 -164 482 -192 312 -394 558 -736 895 -187 183 -225 236 -318 431 -32 68
-65 129 -73 136 -26 21 -63 24 -86 8z m132 -322 c68 -150 124 -224 339 -443
111 -113 252 -267 314 -342 103 -124 115 -136 133 -125 10 6 19 16 19 21 0 46
227 -269 303 -421 67 -133 72 -160 71 -353 0 -188 -13 -268 -68 -414 -28 -75
-31 -91 -16 -81 31 19 125 254 137 342 3 24 11 47 17 52 26 21 185 62 299 77
223 30 650 20 717 -16 8 -5 -52 -6 -135 -3 -112 4 -178 1 -260 -11 -109 -16
-246 -54 -295 -82 -24 -14 -23 -15 20 -10 25 2 77 10 117 17 60 11 82 11 125
0 106 -27 205 -64 298 -112 228 -116 352 -229 444 -402 l36 -68 -30 -52 c-37
-66 -60 -154 -60 -231 0 -33 2 -57 5 -54 3 3 14 47 25 97 22 101 53 171 74
171 23 0 39 -133 34 -281 -4 -98 -12 -163 -32 -242 -15 -63 -26 -137 -26 -176
0 -39 -5 -74 -12 -83 -7 -8 -39 -25 -71 -38 -115 -45 -109 -120 9 -120 21 0
37 -6 40 -15 3 -8 15 -17 26 -21 17 -5 15 -10 -21 -43 -67 -62 -50 -98 59
-131 96 -29 103 -41 49 -90 -24 -22 -64 -52 -88 -66 -52 -31 -303 -96 -337
-88 -13 3 -41 -1 -62 -9 -61 -24 -312 -31 -482 -13 -80 9 -156 16 -170 15
l-25 0 24 -10 c41 -16 235 -48 341 -55 l102 -7 109 -65 c144 -87 342 -236 409
-309 187 -204 250 -463 179 -742 -41 -162 -174 -354 -558 -804 -41 -48 -78
-87 -82 -87 -14 0 -19 35 -19 150 0 74 6 144 16 187 28 116 2 331 -52 435 -26
51 -27 23 -3 -74 19 -73 24 -120 24 -215 0 -67 -3 -125 -8 -129 -4 -4 -21 8
-37 27 -35 41 -39 26 -12 -59 32 -106 17 -861 -19 -896 -6 -6 -9 -4 -9 6 0 11
-7 15 -22 13 -13 -2 -79 -11 -148 -21 -78 -10 -134 -23 -150 -34 -14 -9 -39
-22 -57 -28 -31 -10 -32 -10 -56 41 -106 222 -197 563 -197 740 -1 92 -1 92
-18 62 -25 -44 -22 -191 7 -335 33 -161 73 -291 222 -706 71 -200 129 -368
129 -373 0 -15 -34 -14 -74 3 -27 11 -41 30 -84 117 -50 101 -89 153 -156 204
-60 46 -59 26 3 -40 41 -44 74 -93 102 -151 22 -47 38 -88 35 -91 -3 -3 -63
11 -133 31 -157 44 -385 89 -558 111 -71 10 -132 19 -135 22 -2 2 0 10 5 17 6
7 45 59 87 115 96 126 149 214 199 330 76 178 172 485 239 771 41 177 85 312
211 647 121 325 156 482 146 657 -9 153 -54 249 -183 386 -118 125 -207 180
-489 305 -313 138 -537 266 -623 355 -22 22 -51 62 -63 88 -24 46 -24 51 -21
305 5 349 -13 477 -113 813 -78 260 -107 421 -126 696 -12 175 -9 209 16 188
11 -9 22 -9 50 1 28 11 40 11 55 1 29 -18 38 -15 42 16 3 29 14 4 97 -224 72
-202 135 -307 266 -444 95 -99 136 -157 166 -231 24 -60 48 -204 50 -289 1
-83 17 -32 18 57 2 182 -52 317 -184 463 -142 156 -200 255 -278 475 -143 404
-212 780 -261 1431 -5 66 -2 84 14 84 3 0 23 -39 45 -87z m2174 -333 c-6 -80
-11 -221 -12 -315 -1 -164 0 -175 37 -335 58 -251 59 -398 5 -604 l-11 -39
-76 9 c-181 21 -640 1 -725 -31 -10 -5 -17 -2 -17 5 0 18 443 821 479 869 14
18 23 22 37 16 11 -5 37 -9 60 -10 22 -1 46 -5 53 -9 6 -4 23 -5 37 -2 18 5
24 2 24 -9 0 -9 4 -14 9 -11 4 3 11 43 15 88 10 128 66 559 73 571 16 27 22
-59 12 -193z m-26 -1436 c9 -10 -14 -64 -28 -64 -21 0 -129 42 -145 57 -12 11
0 13 76 13 50 0 93 -3 97 -6z m672 -1684 c-3 -5 -14 -10 -23 -10 -9 0 -48 -16
-86 -35 -77 -38 -96 -43 -96 -20 0 20 48 43 123 59 78 18 90 18 82 6z m-405
-2196 c-17 -49 -83 -267 -146 -484 -62 -217 -126 -435 -142 -485 l-28 -90 -35
1 -34 0 -3 110 c-2 60 0 214 3 342 l7 233 132 152 c72 84 162 190 200 235 38
46 70 81 73 78 2 -2 -10 -44 -27 -92z m395 -958 c163 -166 267 -385 321 -675
60 -326 39 -572 -75 -870 -70 -183 -112 -271 -176 -367 -169 -253 -494 -493
-826 -609 -405 -141 -743 -166 -1260 -95 -144 20 -291 54 -418 97 -180 60
-503 199 -621 267 -100 58 -206 87 -239 66 -11 -6 8 -15 62 -31 49 -14 108
-42 160 -75 137 -88 135 -83 40 -84 -195 -1 -399 79 -576 225 -133 110 -217
247 -262 429 -33 135 -39 212 -25 334 28 255 106 421 271 576 249 235 652 394
1080 427 305 23 710 -31 1131 -150 188 -53 361 -85 563 -102 230 -20 324 -3
466 81 190 113 290 291 292 518 1 80 4 102 15 102 8 0 43 -29 77 -64z m-552
-87 c54 -28 148 -124 175 -180 24 -49 38 -143 28 -183 -13 -51 -202 -136 -303
-136 l-53 0 0 35 c0 78 60 448 77 478 7 12 32 8 76 -14z"/>
<path d="M3295 7081 c-49 -22 -86 -64 -126 -144 -35 -68 -33 -84 5 -33 14 20
38 52 52 72 36 49 80 74 132 74 53 0 86 -17 133 -67 52 -54 101 -135 165 -270
30 -64 57 -113 60 -110 11 10 -37 139 -93 251 -103 205 -211 280 -328 227z"/>
<path d="M3555 6163 c-16 -2 -79 -13 -140 -25 -113 -22 -261 -28 -327 -15 -53
11 -48 -6 10 -30 62 -27 77 -30 248 -53 174 -24 303 -25 399 -5 38 8 81 15 94
15 23 0 23 1 7 19 -10 11 -50 35 -89 55 -71 35 -141 48 -202 39z"/>
<path d="M4080 5730 c-12 -8 -12 -10 3 -16 10 -4 16 -13 13 -20 -4 -10 4 -14
27 -14 42 0 66 14 40 24 -17 7 -17 8 1 22 18 13 16 14 -25 14 -24 0 -51 -4
-59 -10z"/>
<path d="M4200 5700 c0 -13 11 -13 30 0 12 8 11 10 -7 10 -13 0 -23 -4 -23
-10z"/>
<path d="M4244 5634 c-18 -14 -18 -15 4 -4 12 6 22 13 22 15 0 8 -5 6 -26 -11z"/>
<path d="M4150 5630 c-8 -5 -10 -10 -5 -10 6 0 17 5 25 10 8 5 11 10 5 10 -5
0 -17 -5 -25 -10z"/>
<path d="M4256 8243 c-11 -11 -6 -80 7 -91 6 -5 41 -13 77 -17 120 -13 415
-65 536 -95 195 -47 507 -160 719 -260 204 -95 564 -325 735 -468 129 -108
323 -290 412 -387 343 -375 628 -858 795 -1350 68 -201 147 -554 175 -780 21
-174 18 -728 -5 -880 -63 -417 -113 -611 -244 -945 -105 -266 -219 -479 -404
-757 -92 -136 -183 -249 -347 -426 -297 -323 -657 -594 -1042 -787 -275 -138
-517 -230 -757 -290 l-132 -32 -53 -57 c-52 -55 -53 -56 -27 -59 39 -5 314 62
467 113 150 50 437 171 585 247 180 92 452 273 657 435 112 89 398 371 513
506 217 255 452 633 583 939 117 271 192 505 243 753 81 397 101 636 83 995
-14 267 -33 406 -96 687 -65 292 -126 469 -284 820 -230 510 -718 1096 -1222
1465 -108 79 -369 238 -523 318 -155 81 -325 150 -567 230 -255 85 -439 125
-740 160 -52 6 -104 13 -116 15 -12 3 -24 2 -28 -2z"/>
<path d="M3181 8182 c-41 -10 -76 -22 -78 -28 -2 -6 6 -28 18 -49 21 -34 24
-36 58 -30 51 9 79 30 96 71 26 62 26 62 -94 36z"/>
<path d="M1548 7431 c-208 -157 -514 -463 -679 -681 -80 -105 -227 -327 -307
-462 -170 -290 -348 -759 -416 -1098 -71 -358 -89 -519 -88 -815 0 -330 24
-540 94 -843 67 -295 201 -665 327 -907 128 -247 335 -579 391 -630 16 -15 20
-13 49 21 30 34 31 37 16 57 -180 249 -382 605 -476 839 -151 377 -247 749
-280 1078 -17 171 -18 638 -1 765 57 424 123 686 264 1040 99 248 184 410 363
685 189 291 531 661 783 850 56 41 103 80 106 86 7 19 -15 94 -29 94 -6 0 -59
-35 -117 -79z"/>
<path d="M4960 5795 c-30 -7 -83 -19 -118 -26 -64 -12 -92 -29 -49 -29 33 0
187 40 217 56 31 16 20 16 -50 -1z"/>
<path d="M4875 5709 c-77 -3 -141 -7 -143 -8 -2 0 0 -6 4 -12 8 -14 193 -4
299 16 83 15 64 16 -160 4z"/>
<path d="M4700 5644 c0 -11 71 -34 107 -33 l38 0 -55 19 c-56 19 -90 24 -90
14z"/>
<path d="M4685 5601 c7 -12 87 -37 140 -45 32 -5 26 0 -35 24 -76 29 -116 37
-105 21z"/>
<path d="M4620 5550 c0 -12 76 -49 100 -50 19 0 -18 26 -65 46 -22 9 -35 10
-35 4z"/>
</g>
</svg>
